<svg id="Capa_1" enable-background="new 0 0 512.003 512.003" height="512" viewBox="0 0 512.003 512.003" width="512" xmlns="http://www.w3.org/2000/svg"><g><path d="m270 45.002c0 8.28-6.72 15-15 15h-45v75c0 8.28-6.72 15-15 15s-15-6.72-15-15v-75h-45c-8.28 0-15-6.72-15-15s6.72-15 15-15h120c8.28 0 15 6.72 15 15z" fill="#6cf"/><path d="m270 45.002c0 8.28-6.72 15-15 15h-45v75c0 8.28-6.72 15-15 15v-120h60c8.28 0 15 6.72 15 15z" fill="#39f"/><g><g><path d="m404.99 399.502c-2.89-5-7.94-7.49-12.99-7.49-5.06 0-10.11 2.5-12.99 7.49-21.69 40.39-32.01 48.06-32.01 67.5 0 24.81 20.19 45 45 45s45-20.19 45-45c0-19.44-10.23-26.94-32.01-67.5z" fill="#9ef"/></g></g><path d="m437 467.002c0 24.81-20.19 45-45 45v-119.99c5.05 0 10.1 2.49 12.99 7.49 21.78 40.56 32.01 48.06 32.01 67.5z" fill="#6cf"/><g><path d="m105 90.002c-24.813 0-45-20.187-45-45s20.187-45 45-45 45 20.187 45 45-20.187 45-45 45z" fill="#6cf"/></g><g><path d="m285 90.002c-24.813 0-45-20.187-45-45s20.187-45 45-45 45 20.187 45 45-20.187 45-45 45z" fill="#39f"/></g><g><g><path d="m288.583 443.71-15-30c-3.705-7.41-.701-16.42 6.708-20.125 7.409-3.704 16.419-.701 20.125 6.708l15 30c3.705 7.41.701 16.42-6.708 20.125-7.411 3.706-16.42.7-20.125-6.708z" fill="#9ef"/></g></g><g><path d="m475.292 450.418c-7.41-3.705-10.413-12.715-6.708-20.125l15-30c3.705-7.409 12.716-10.412 20.125-6.708 7.41 3.705 10.413 12.715 6.708 20.125l-15 30c-3.698 7.396-12.703 10.419-20.125 6.708z" fill="#6cf"/></g><g><path d="m347 180.002h-62c-8.27 0-15-6.73-15-15v-30c0-8.28-6.72-15-15-15h-120c-8.28 0-15 6.72-15 15v30c0 8.27-6.73 15-15 15h-90c-8.28 0-15 6.72-15 15v90c0 8.28 6.72 15 15 15h106.98c19.62 19.14 45.86 30 73.02 30s53.4-10.86 73.02-30h48.98c8.27 0 15 6.73 15 15v30c0 8.28 6.72 15 15 15h90c8.28 0 15-6.72 15-15v-60c0-57.9-47.1-105-105-105z" fill="#e6fbff"/></g><path d="m452 285.002v60c0 8.28-6.72 15-15 15h-90c-8.28 0-15-6.72-15-15v-30c0-8.27-6.73-15-15-15h-48.98c-19.62 19.14-45.86 30-73.02 30v-210h60c8.28 0 15 6.72 15 15v30c0 8.27 6.73 15 15 15h62c57.9 0 105 47.1 105 105z" fill="#cef"/></g></svg>